<svg width="800" height="800" viewBox="0 0 800 800" fill="none" xmlns="http://www.w3.org/2000/svg">
<path d="M259.097 616.036L292.314 538.53L373.017 619.233L346.564 673.444C344.044 678.609 340.651 683.302 336.536 687.314L236.673 784.695C217.136 803.747 185.798 803.481 166.422 784.266C146.692 764.698 146.565 732.661 166.308 713.105L248.326 631.864C252.903 627.331 256.559 621.956 259.097 616.036ZM298.278 333.489L339.667 317.052L311.378 446.156C309.698 453.823 311.717 461.836 316.829 467.791L317.267 468.3L400.567 562.5L400.306 563.308L400.656 562.589L451.931 631.72C455.768 636.892 458.57 642.759 460.181 648.995L489.068 760.767C496.022 787.67 523.764 803.694 550.606 796.502C576.964 789.439 592.975 762.498 586.353 736.025L553.036 602.819C551.3 595.875 548.093 589.386 543.633 583.789L458.664 477.164L485.006 374.433L500.179 414.664C503.497 423.459 509.225 431.142 516.709 436.83L569.697 477.1C591.612 493.756 622.884 489.545 639.637 467.705C656.486 445.741 652.3 414.247 630.278 397.475L591.048 367.595C583.981 362.213 578.475 355.044 575.098 346.827L541.222 264.408C536.837 253.742 528.868 245.602 519.264 240.836L519.317 240.625C519.317 240.625 479.167 213.381 449.786 205.469C419.234 197.242 370.662 202.436 365.145 203.066C358.989 203.044 352.728 204.166 346.654 206.562L232.801 251.503C230.114 252.564 227.775 254.348 226.04 256.658L174.268 325.636C157.717 347.689 162.183 379.009 184.201 395.608C206.251 412.231 237.645 407.864 254.267 385.814L287.542 341.675C290.303 338.014 294.017 335.183 298.278 333.489ZM463.067 175C511.392 175 550.567 135.825 550.567 87.5C550.567 39.175 511.392 0 463.067 0C414.742 0 375.567 39.175 375.567 87.5C375.567 135.825 414.742 175 463.067 175Z" fill="#1E1E1E"/>
</svg>
